<mxfile host="app.diagrams.net" modified="2024-07-10T13:56:50.375Z" agent="Mozilla/5.0 (Macintosh; Intel Mac OS X 10_15_7) AppleWebKit/537.36 (KHTML, like Gecko) Chrome/126.0.0.0 Safari/537.36" etag="bdxLoLWoXp-KGKOA_aVB" version="24.6.4" type="device" pages="4">
  <diagram name="페이지-1" id="ScMyT0xqbB3FabsQoKtR">
    <mxGraphModel dx="2424" dy="1280" grid="1" gridSize="10" guides="1" tooltips="1" connect="1" arrows="1" fold="1" page="1" pageScale="1" pageWidth="1169" pageHeight="827" math="0" shadow="0">
      <root>
        <mxCell id="0" />
        <mxCell id="1" parent="0" />
        <mxCell id="nlhCWQhUvbY0Na3j1pSn-1" value="" style="rounded=0;whiteSpace=wrap;html=1;fontSize=16;fontStyle=1" vertex="1" parent="1">
          <mxGeometry x="160" y="80" width="40" height="40" as="geometry" />
        </mxCell>
        <mxCell id="nlhCWQhUvbY0Na3j1pSn-2" value="" style="ellipse;whiteSpace=wrap;html=1;aspect=fixed;fillColor=#000000;fontSize=16;fontStyle=1" vertex="1" parent="1">
          <mxGeometry x="175" y="95" width="10" height="10" as="geometry" />
        </mxCell>
        <mxCell id="nlhCWQhUvbY0Na3j1pSn-3" value="" style="rounded=0;whiteSpace=wrap;html=1;fontSize=16;fontStyle=1" vertex="1" parent="1">
          <mxGeometry x="240" y="200" width="40" height="40" as="geometry" />
        </mxCell>
        <mxCell id="nlhCWQhUvbY0Na3j1pSn-4" value="" style="ellipse;whiteSpace=wrap;html=1;aspect=fixed;fillColor=#000000;fontSize=16;fontStyle=1" vertex="1" parent="1">
          <mxGeometry x="255" y="215" width="10" height="10" as="geometry" />
        </mxCell>
        <mxCell id="nlhCWQhUvbY0Na3j1pSn-5" value="A" style="rounded=0;whiteSpace=wrap;html=1;fontSize=16;fontStyle=1" vertex="1" parent="1">
          <mxGeometry x="160" y="200" width="80" height="40" as="geometry" />
        </mxCell>
        <mxCell id="nlhCWQhUvbY0Na3j1pSn-6" value="" style="curved=1;endArrow=classic;html=1;rounded=0;entryX=0.5;entryY=1;entryDx=0;entryDy=0;fontSize=16;fontStyle=1" edge="1" parent="1" source="nlhCWQhUvbY0Na3j1pSn-4" target="nlhCWQhUvbY0Na3j1pSn-5">
          <mxGeometry width="50" height="50" relative="1" as="geometry">
            <mxPoint x="300" y="220" as="sourcePoint" />
            <mxPoint x="350" y="170" as="targetPoint" />
            <Array as="points">
              <mxPoint x="310" y="220" />
              <mxPoint x="300" y="270" />
              <mxPoint x="220" y="290" />
            </Array>
          </mxGeometry>
        </mxCell>
        <mxCell id="nlhCWQhUvbY0Na3j1pSn-7" value="" style="endArrow=classic;html=1;rounded=0;entryX=0.5;entryY=0;entryDx=0;entryDy=0;fontSize=16;fontStyle=1" edge="1" parent="1" source="nlhCWQhUvbY0Na3j1pSn-2" target="nlhCWQhUvbY0Na3j1pSn-5">
          <mxGeometry width="50" height="50" relative="1" as="geometry">
            <mxPoint x="210" y="150" as="sourcePoint" />
            <mxPoint x="260" y="100" as="targetPoint" />
          </mxGeometry>
        </mxCell>
        <mxCell id="nlhCWQhUvbY0Na3j1pSn-8" value="" style="rounded=0;whiteSpace=wrap;html=1;fontSize=16;fontStyle=1" vertex="1" parent="1">
          <mxGeometry x="440" y="200" width="40" height="40" as="geometry" />
        </mxCell>
        <mxCell id="nlhCWQhUvbY0Na3j1pSn-9" value="" style="ellipse;whiteSpace=wrap;html=1;aspect=fixed;fillColor=#000000;fontSize=16;fontStyle=1" vertex="1" parent="1">
          <mxGeometry x="455" y="215" width="10" height="10" as="geometry" />
        </mxCell>
        <mxCell id="nlhCWQhUvbY0Na3j1pSn-10" value="A" style="rounded=0;whiteSpace=wrap;html=1;fontSize=16;fontStyle=1" vertex="1" parent="1">
          <mxGeometry x="360" y="200" width="80" height="40" as="geometry" />
        </mxCell>
        <mxCell id="nlhCWQhUvbY0Na3j1pSn-11" value="" style="curved=1;endArrow=classic;html=1;rounded=0;entryX=0;entryY=0.5;entryDx=0;entryDy=0;fontSize=16;fontStyle=1" edge="1" parent="1" source="nlhCWQhUvbY0Na3j1pSn-9" target="nlhCWQhUvbY0Na3j1pSn-14">
          <mxGeometry width="50" height="50" relative="1" as="geometry">
            <mxPoint x="500" y="220" as="sourcePoint" />
            <mxPoint x="550" y="170" as="targetPoint" />
            <Array as="points">
              <mxPoint x="530" y="210" />
            </Array>
          </mxGeometry>
        </mxCell>
        <mxCell id="nlhCWQhUvbY0Na3j1pSn-12" value="" style="rounded=0;whiteSpace=wrap;html=1;fontSize=16;fontStyle=1" vertex="1" parent="1">
          <mxGeometry x="640" y="200" width="40" height="40" as="geometry" />
        </mxCell>
        <mxCell id="nlhCWQhUvbY0Na3j1pSn-13" value="" style="ellipse;whiteSpace=wrap;html=1;aspect=fixed;fillColor=#000000;fontSize=16;fontStyle=1" vertex="1" parent="1">
          <mxGeometry x="655" y="215" width="10" height="10" as="geometry" />
        </mxCell>
        <mxCell id="nlhCWQhUvbY0Na3j1pSn-14" value="B" style="rounded=0;whiteSpace=wrap;html=1;fontSize=16;fontStyle=1" vertex="1" parent="1">
          <mxGeometry x="560" y="200" width="80" height="40" as="geometry" />
        </mxCell>
        <mxCell id="nlhCWQhUvbY0Na3j1pSn-16" value="" style="curved=1;endArrow=classic;html=1;rounded=0;entryX=0;entryY=0.5;entryDx=0;entryDy=0;fontSize=16;fontStyle=1" edge="1" parent="1" target="nlhCWQhUvbY0Na3j1pSn-19">
          <mxGeometry width="50" height="50" relative="1" as="geometry">
            <mxPoint x="665" y="219" as="sourcePoint" />
            <mxPoint x="750" y="170" as="targetPoint" />
            <Array as="points">
              <mxPoint x="730" y="210" />
            </Array>
          </mxGeometry>
        </mxCell>
        <mxCell id="nlhCWQhUvbY0Na3j1pSn-17" value="" style="rounded=0;whiteSpace=wrap;html=1;fontSize=16;fontStyle=1" vertex="1" parent="1">
          <mxGeometry x="840" y="200" width="40" height="40" as="geometry" />
        </mxCell>
        <mxCell id="nlhCWQhUvbY0Na3j1pSn-18" value="" style="ellipse;whiteSpace=wrap;html=1;aspect=fixed;fillColor=#000000;fontSize=16;fontStyle=1" vertex="1" parent="1">
          <mxGeometry x="855" y="215" width="10" height="10" as="geometry" />
        </mxCell>
        <mxCell id="nlhCWQhUvbY0Na3j1pSn-19" value="C" style="rounded=0;whiteSpace=wrap;html=1;fontSize=16;fontStyle=1" vertex="1" parent="1">
          <mxGeometry x="760" y="200" width="80" height="40" as="geometry" />
        </mxCell>
        <mxCell id="nlhCWQhUvbY0Na3j1pSn-20" value="" style="curved=1;endArrow=classic;html=1;rounded=0;entryX=0;entryY=0.5;entryDx=0;entryDy=0;fontSize=16;fontStyle=1" edge="1" parent="1" target="nlhCWQhUvbY0Na3j1pSn-23">
          <mxGeometry width="50" height="50" relative="1" as="geometry">
            <mxPoint x="865" y="219" as="sourcePoint" />
            <mxPoint x="950" y="170" as="targetPoint" />
            <Array as="points">
              <mxPoint x="930" y="210" />
            </Array>
          </mxGeometry>
        </mxCell>
        <mxCell id="nlhCWQhUvbY0Na3j1pSn-21" value="" style="rounded=0;whiteSpace=wrap;html=1;fontSize=16;fontStyle=1" vertex="1" parent="1">
          <mxGeometry x="1040" y="200" width="40" height="40" as="geometry" />
        </mxCell>
        <mxCell id="nlhCWQhUvbY0Na3j1pSn-22" value="" style="ellipse;whiteSpace=wrap;html=1;aspect=fixed;fillColor=#000000;fontSize=16;fontStyle=1" vertex="1" parent="1">
          <mxGeometry x="1055" y="215" width="10" height="10" as="geometry" />
        </mxCell>
        <mxCell id="nlhCWQhUvbY0Na3j1pSn-23" value="D" style="rounded=0;whiteSpace=wrap;html=1;fontSize=16;fontStyle=1" vertex="1" parent="1">
          <mxGeometry x="960" y="200" width="80" height="40" as="geometry" />
        </mxCell>
        <mxCell id="nlhCWQhUvbY0Na3j1pSn-24" value="end" style="text;html=1;align=center;verticalAlign=middle;whiteSpace=wrap;rounded=0;fontSize=16;fontStyle=1" vertex="1" parent="1">
          <mxGeometry x="100" y="85" width="60" height="30" as="geometry" />
        </mxCell>
        <mxCell id="nlhCWQhUvbY0Na3j1pSn-25" value="" style="rounded=0;whiteSpace=wrap;html=1;fontSize=16;fontStyle=1" vertex="1" parent="1">
          <mxGeometry x="960" y="80" width="40" height="40" as="geometry" />
        </mxCell>
        <mxCell id="nlhCWQhUvbY0Na3j1pSn-26" value="" style="ellipse;whiteSpace=wrap;html=1;aspect=fixed;fillColor=#000000;fontSize=16;fontStyle=1" vertex="1" parent="1">
          <mxGeometry x="975" y="95" width="10" height="10" as="geometry" />
        </mxCell>
        <mxCell id="nlhCWQhUvbY0Na3j1pSn-27" value="" style="endArrow=classic;html=1;rounded=0;entryX=0.5;entryY=0;entryDx=0;entryDy=0;fontSize=16;fontStyle=1" edge="1" parent="1" source="nlhCWQhUvbY0Na3j1pSn-26">
          <mxGeometry width="50" height="50" relative="1" as="geometry">
            <mxPoint x="1010" y="150" as="sourcePoint" />
            <mxPoint x="1000" y="200" as="targetPoint" />
          </mxGeometry>
        </mxCell>
        <mxCell id="nlhCWQhUvbY0Na3j1pSn-28" value="end" style="text;html=1;align=center;verticalAlign=middle;whiteSpace=wrap;rounded=0;fontSize=16;fontStyle=1" vertex="1" parent="1">
          <mxGeometry x="900" y="85" width="60" height="30" as="geometry" />
        </mxCell>
        <mxCell id="nlhCWQhUvbY0Na3j1pSn-29" value="" style="curved=1;endArrow=classic;html=1;rounded=0;exitX=1;exitY=0.5;exitDx=0;exitDy=0;entryX=0.5;entryY=1;entryDx=0;entryDy=0;fontSize=16;fontStyle=1" edge="1" parent="1" source="nlhCWQhUvbY0Na3j1pSn-22" target="nlhCWQhUvbY0Na3j1pSn-10">
          <mxGeometry width="50" height="50" relative="1" as="geometry">
            <mxPoint x="1080" y="224" as="sourcePoint" />
            <mxPoint x="460" y="270" as="targetPoint" />
            <Array as="points">
              <mxPoint x="1110" y="220" />
              <mxPoint x="1080" y="300" />
              <mxPoint x="460" y="290" />
              <mxPoint x="410" y="270" />
            </Array>
          </mxGeometry>
        </mxCell>
      </root>
    </mxGraphModel>
  </diagram>
  <diagram id="UDrtn0j4l67IsHCc2KDx" name="페이지-2">
    <mxGraphModel dx="2424" dy="1280" grid="1" gridSize="10" guides="1" tooltips="1" connect="1" arrows="1" fold="1" page="1" pageScale="1" pageWidth="1169" pageHeight="827" math="0" shadow="0">
      <root>
        <mxCell id="0" />
        <mxCell id="1" parent="0" />
        <mxCell id="IccHiBF_ZWVZKDZQ5JKP-43" value="" style="rounded=0;whiteSpace=wrap;html=1;fillColor=#E6E6E6;" vertex="1" parent="1">
          <mxGeometry x="600" y="30" width="130" height="100" as="geometry" />
        </mxCell>
        <mxCell id="IccHiBF_ZWVZKDZQ5JKP-8" value="" style="rounded=0;whiteSpace=wrap;html=1;fontSize=16;fontStyle=1" vertex="1" parent="1">
          <mxGeometry x="440" y="200" width="40" height="40" as="geometry" />
        </mxCell>
        <mxCell id="IccHiBF_ZWVZKDZQ5JKP-9" value="" style="ellipse;whiteSpace=wrap;html=1;aspect=fixed;fillColor=#000000;fontSize=16;fontStyle=1" vertex="1" parent="1">
          <mxGeometry x="455" y="215" width="10" height="10" as="geometry" />
        </mxCell>
        <mxCell id="IccHiBF_ZWVZKDZQ5JKP-10" value="A" style="rounded=0;whiteSpace=wrap;html=1;fontSize=16;fontStyle=1" vertex="1" parent="1">
          <mxGeometry x="360" y="200" width="80" height="40" as="geometry" />
        </mxCell>
        <mxCell id="IccHiBF_ZWVZKDZQ5JKP-11" value="" style="curved=1;endArrow=classic;html=1;rounded=0;entryX=0;entryY=0.5;entryDx=0;entryDy=0;fontSize=16;fontStyle=1" edge="1" parent="1" source="IccHiBF_ZWVZKDZQ5JKP-9" target="IccHiBF_ZWVZKDZQ5JKP-14">
          <mxGeometry width="50" height="50" relative="1" as="geometry">
            <mxPoint x="500" y="220" as="sourcePoint" />
            <mxPoint x="550" y="170" as="targetPoint" />
            <Array as="points">
              <mxPoint x="530" y="210" />
            </Array>
          </mxGeometry>
        </mxCell>
        <mxCell id="IccHiBF_ZWVZKDZQ5JKP-12" value="" style="rounded=0;whiteSpace=wrap;html=1;fontSize=16;fontStyle=1" vertex="1" parent="1">
          <mxGeometry x="640" y="200" width="40" height="40" as="geometry" />
        </mxCell>
        <mxCell id="IccHiBF_ZWVZKDZQ5JKP-13" value="" style="ellipse;whiteSpace=wrap;html=1;aspect=fixed;fillColor=#000000;fontSize=16;fontStyle=1" vertex="1" parent="1">
          <mxGeometry x="655" y="215" width="10" height="10" as="geometry" />
        </mxCell>
        <mxCell id="IccHiBF_ZWVZKDZQ5JKP-14" value="B" style="rounded=0;whiteSpace=wrap;html=1;fontSize=16;fontStyle=1" vertex="1" parent="1">
          <mxGeometry x="560" y="200" width="80" height="40" as="geometry" />
        </mxCell>
        <mxCell id="IccHiBF_ZWVZKDZQ5JKP-15" value="" style="curved=1;endArrow=classic;html=1;rounded=0;entryX=0;entryY=0.5;entryDx=0;entryDy=0;fontSize=16;fontStyle=1" edge="1" parent="1" target="IccHiBF_ZWVZKDZQ5JKP-18">
          <mxGeometry width="50" height="50" relative="1" as="geometry">
            <mxPoint x="665" y="219" as="sourcePoint" />
            <mxPoint x="750" y="170" as="targetPoint" />
            <Array as="points">
              <mxPoint x="730" y="210" />
            </Array>
          </mxGeometry>
        </mxCell>
        <mxCell id="IccHiBF_ZWVZKDZQ5JKP-16" value="" style="rounded=0;whiteSpace=wrap;html=1;fontSize=16;fontStyle=1" vertex="1" parent="1">
          <mxGeometry x="840" y="200" width="40" height="40" as="geometry" />
        </mxCell>
        <mxCell id="IccHiBF_ZWVZKDZQ5JKP-17" value="" style="ellipse;whiteSpace=wrap;html=1;aspect=fixed;fillColor=#000000;fontSize=16;fontStyle=1" vertex="1" parent="1">
          <mxGeometry x="855" y="215" width="10" height="10" as="geometry" />
        </mxCell>
        <mxCell id="IccHiBF_ZWVZKDZQ5JKP-18" value="C" style="rounded=0;whiteSpace=wrap;html=1;fontSize=16;fontStyle=1" vertex="1" parent="1">
          <mxGeometry x="760" y="200" width="80" height="40" as="geometry" />
        </mxCell>
        <mxCell id="IccHiBF_ZWVZKDZQ5JKP-19" value="" style="curved=1;endArrow=classic;html=1;rounded=0;entryX=0;entryY=0.5;entryDx=0;entryDy=0;fontSize=16;fontStyle=1" edge="1" parent="1" target="IccHiBF_ZWVZKDZQ5JKP-22">
          <mxGeometry width="50" height="50" relative="1" as="geometry">
            <mxPoint x="865" y="219" as="sourcePoint" />
            <mxPoint x="950" y="170" as="targetPoint" />
            <Array as="points">
              <mxPoint x="930" y="210" />
            </Array>
          </mxGeometry>
        </mxCell>
        <mxCell id="IccHiBF_ZWVZKDZQ5JKP-20" value="" style="rounded=0;whiteSpace=wrap;html=1;fontSize=16;fontStyle=1" vertex="1" parent="1">
          <mxGeometry x="1040" y="200" width="40" height="40" as="geometry" />
        </mxCell>
        <mxCell id="IccHiBF_ZWVZKDZQ5JKP-21" value="" style="ellipse;whiteSpace=wrap;html=1;aspect=fixed;fillColor=#000000;fontSize=16;fontStyle=1" vertex="1" parent="1">
          <mxGeometry x="1055" y="215" width="10" height="10" as="geometry" />
        </mxCell>
        <mxCell id="IccHiBF_ZWVZKDZQ5JKP-22" value="D" style="rounded=0;whiteSpace=wrap;html=1;fontSize=16;fontStyle=1" vertex="1" parent="1">
          <mxGeometry x="960" y="200" width="80" height="40" as="geometry" />
        </mxCell>
        <mxCell id="IccHiBF_ZWVZKDZQ5JKP-28" value="" style="curved=1;endArrow=classic;html=1;rounded=0;exitX=1;exitY=0.5;exitDx=0;exitDy=0;entryX=0.5;entryY=1;entryDx=0;entryDy=0;fontSize=16;fontStyle=1" edge="1" parent="1" source="IccHiBF_ZWVZKDZQ5JKP-21" target="IccHiBF_ZWVZKDZQ5JKP-10">
          <mxGeometry width="50" height="50" relative="1" as="geometry">
            <mxPoint x="1080" y="224" as="sourcePoint" />
            <mxPoint x="460" y="270" as="targetPoint" />
            <Array as="points">
              <mxPoint x="1110" y="220" />
              <mxPoint x="1080" y="300" />
              <mxPoint x="460" y="290" />
              <mxPoint x="410" y="270" />
            </Array>
          </mxGeometry>
        </mxCell>
        <mxCell id="IccHiBF_ZWVZKDZQ5JKP-32" value="it" style="text;html=1;align=center;verticalAlign=middle;whiteSpace=wrap;rounded=0;fontSize=16;fontStyle=1" vertex="1" parent="1">
          <mxGeometry x="540" y="40" width="60" height="30" as="geometry" />
        </mxCell>
        <mxCell id="IccHiBF_ZWVZKDZQ5JKP-36" value="last" style="text;html=1;align=right;verticalAlign=middle;whiteSpace=wrap;rounded=0;fontSize=16;fontStyle=1" vertex="1" parent="1">
          <mxGeometry x="610" y="40" width="60" height="40" as="geometry" />
        </mxCell>
        <mxCell id="IccHiBF_ZWVZKDZQ5JKP-37" value="preLast" style="text;html=1;align=right;verticalAlign=middle;whiteSpace=wrap;rounded=0;fontSize=16;fontStyle=1" vertex="1" parent="1">
          <mxGeometry x="610" y="80" width="60" height="40" as="geometry" />
        </mxCell>
        <mxCell id="IccHiBF_ZWVZKDZQ5JKP-38" value="" style="group" vertex="1" connectable="0" parent="1">
          <mxGeometry x="680" y="40" width="40" height="40" as="geometry" />
        </mxCell>
        <mxCell id="IccHiBF_ZWVZKDZQ5JKP-33" value="" style="rounded=0;whiteSpace=wrap;html=1;fontSize=16;fontStyle=1" vertex="1" parent="IccHiBF_ZWVZKDZQ5JKP-38">
          <mxGeometry width="40" height="40" as="geometry" />
        </mxCell>
        <mxCell id="IccHiBF_ZWVZKDZQ5JKP-34" value="" style="ellipse;whiteSpace=wrap;html=1;aspect=fixed;fillColor=#000000;fontSize=16;fontStyle=1" vertex="1" parent="IccHiBF_ZWVZKDZQ5JKP-38">
          <mxGeometry x="15" y="15" width="10" height="10" as="geometry" />
        </mxCell>
        <mxCell id="IccHiBF_ZWVZKDZQ5JKP-39" value="" style="group" vertex="1" connectable="0" parent="1">
          <mxGeometry x="680" y="80" width="40" height="40" as="geometry" />
        </mxCell>
        <mxCell id="IccHiBF_ZWVZKDZQ5JKP-40" value="" style="rounded=0;whiteSpace=wrap;html=1;fontSize=16;fontStyle=1" vertex="1" parent="IccHiBF_ZWVZKDZQ5JKP-39">
          <mxGeometry width="40" height="40" as="geometry" />
        </mxCell>
        <mxCell id="IccHiBF_ZWVZKDZQ5JKP-41" value="" style="ellipse;whiteSpace=wrap;html=1;aspect=fixed;fillColor=#000000;fontSize=16;fontStyle=1" vertex="1" parent="IccHiBF_ZWVZKDZQ5JKP-39">
          <mxGeometry x="15" y="15" width="10" height="10" as="geometry" />
        </mxCell>
        <mxCell id="IccHiBF_ZWVZKDZQ5JKP-35" value="" style="endArrow=classic;html=1;rounded=0;entryX=0.5;entryY=0;entryDx=0;entryDy=0;fontSize=16;fontStyle=1" edge="1" parent="1" source="IccHiBF_ZWVZKDZQ5JKP-34">
          <mxGeometry width="50" height="50" relative="1" as="geometry">
            <mxPoint x="810" y="150" as="sourcePoint" />
            <mxPoint x="800" y="200" as="targetPoint" />
          </mxGeometry>
        </mxCell>
        <mxCell id="IccHiBF_ZWVZKDZQ5JKP-42" value="" style="endArrow=classic;html=1;rounded=0;entryX=0.5;entryY=0;entryDx=0;entryDy=0;fontSize=16;fontStyle=1;exitX=0.5;exitY=1;exitDx=0;exitDy=0;" edge="1" parent="1" source="IccHiBF_ZWVZKDZQ5JKP-41" target="IccHiBF_ZWVZKDZQ5JKP-14">
          <mxGeometry width="50" height="50" relative="1" as="geometry">
            <mxPoint x="752" y="75" as="sourcePoint" />
            <mxPoint x="810" y="210" as="targetPoint" />
          </mxGeometry>
        </mxCell>
        <mxCell id="J840Ag5lE8pJurmeRW8h-1" value="" style="rounded=0;whiteSpace=wrap;html=1;fontSize=16;fontStyle=1" vertex="1" parent="1">
          <mxGeometry x="960" y="80" width="40" height="40" as="geometry" />
        </mxCell>
        <mxCell id="J840Ag5lE8pJurmeRW8h-2" value="" style="ellipse;whiteSpace=wrap;html=1;aspect=fixed;fillColor=#000000;fontSize=16;fontStyle=1" vertex="1" parent="1">
          <mxGeometry x="975" y="95" width="10" height="10" as="geometry" />
        </mxCell>
        <mxCell id="J840Ag5lE8pJurmeRW8h-3" value="" style="endArrow=classic;html=1;rounded=0;entryX=0.5;entryY=0;entryDx=0;entryDy=0;fontSize=16;fontStyle=1" edge="1" parent="1" source="J840Ag5lE8pJurmeRW8h-2">
          <mxGeometry width="50" height="50" relative="1" as="geometry">
            <mxPoint x="1010" y="150" as="sourcePoint" />
            <mxPoint x="1000" y="200" as="targetPoint" />
          </mxGeometry>
        </mxCell>
        <mxCell id="J840Ag5lE8pJurmeRW8h-4" value="end" style="text;html=1;align=center;verticalAlign=middle;whiteSpace=wrap;rounded=0;fontSize=16;fontStyle=1" vertex="1" parent="1">
          <mxGeometry x="900" y="85" width="60" height="30" as="geometry" />
        </mxCell>
      </root>
    </mxGraphModel>
  </diagram>
  <diagram id="qWUxPsxOVWgvinEJUDhe" name="페이지-3">
    <mxGraphModel dx="2060" dy="1088" grid="1" gridSize="10" guides="1" tooltips="1" connect="1" arrows="1" fold="1" page="1" pageScale="1" pageWidth="1169" pageHeight="827" math="0" shadow="0">
      <root>
        <mxCell id="0" />
        <mxCell id="1" parent="0" />
        <mxCell id="oWXDux-tvk5BPXHDdyhV-1" value="" style="rounded=0;whiteSpace=wrap;html=1;fillColor=#E6E6E6;" vertex="1" parent="1">
          <mxGeometry x="400" y="40" width="130" height="100" as="geometry" />
        </mxCell>
        <mxCell id="oWXDux-tvk5BPXHDdyhV-2" value="" style="rounded=0;whiteSpace=wrap;html=1;fontSize=16;fontStyle=1" vertex="1" parent="1">
          <mxGeometry x="240" y="210" width="40" height="40" as="geometry" />
        </mxCell>
        <mxCell id="oWXDux-tvk5BPXHDdyhV-3" value="" style="ellipse;whiteSpace=wrap;html=1;aspect=fixed;fillColor=#000000;fontSize=16;fontStyle=1" vertex="1" parent="1">
          <mxGeometry x="255" y="225" width="10" height="10" as="geometry" />
        </mxCell>
        <mxCell id="oWXDux-tvk5BPXHDdyhV-4" value="A" style="rounded=0;whiteSpace=wrap;html=1;fontSize=16;fontStyle=1" vertex="1" parent="1">
          <mxGeometry x="160" y="210" width="80" height="40" as="geometry" />
        </mxCell>
        <mxCell id="oWXDux-tvk5BPXHDdyhV-5" value="" style="curved=1;endArrow=classic;html=1;rounded=0;entryX=0;entryY=0.5;entryDx=0;entryDy=0;fontSize=16;fontStyle=1" edge="1" parent="1" source="oWXDux-tvk5BPXHDdyhV-3" target="oWXDux-tvk5BPXHDdyhV-8">
          <mxGeometry width="50" height="50" relative="1" as="geometry">
            <mxPoint x="300" y="230" as="sourcePoint" />
            <mxPoint x="350" y="180" as="targetPoint" />
            <Array as="points">
              <mxPoint x="330" y="220" />
            </Array>
          </mxGeometry>
        </mxCell>
        <mxCell id="oWXDux-tvk5BPXHDdyhV-6" value="" style="rounded=0;whiteSpace=wrap;html=1;fontSize=16;fontStyle=1" vertex="1" parent="1">
          <mxGeometry x="440" y="210" width="40" height="40" as="geometry" />
        </mxCell>
        <mxCell id="oWXDux-tvk5BPXHDdyhV-7" value="" style="ellipse;whiteSpace=wrap;html=1;aspect=fixed;fillColor=#000000;fontSize=16;fontStyle=1" vertex="1" parent="1">
          <mxGeometry x="455" y="225" width="10" height="10" as="geometry" />
        </mxCell>
        <mxCell id="oWXDux-tvk5BPXHDdyhV-8" value="B" style="rounded=0;whiteSpace=wrap;html=1;fontSize=16;fontStyle=1" vertex="1" parent="1">
          <mxGeometry x="360" y="210" width="80" height="40" as="geometry" />
        </mxCell>
        <mxCell id="oWXDux-tvk5BPXHDdyhV-9" value="" style="curved=1;endArrow=classic;html=1;rounded=0;entryX=0;entryY=0.5;entryDx=0;entryDy=0;fontSize=16;fontStyle=1" edge="1" parent="1" target="oWXDux-tvk5BPXHDdyhV-16">
          <mxGeometry width="50" height="50" relative="1" as="geometry">
            <mxPoint x="465" y="229" as="sourcePoint" />
            <mxPoint x="550" y="180" as="targetPoint" />
            <Array as="points">
              <mxPoint x="490" y="260" />
              <mxPoint x="570" y="280" />
              <mxPoint x="720" y="270" />
            </Array>
          </mxGeometry>
        </mxCell>
        <mxCell id="oWXDux-tvk5BPXHDdyhV-10" value="" style="rounded=0;whiteSpace=wrap;html=1;fontSize=16;fontStyle=1" vertex="1" parent="1">
          <mxGeometry x="640" y="210" width="40" height="40" as="geometry" />
        </mxCell>
        <mxCell id="oWXDux-tvk5BPXHDdyhV-11" value="" style="ellipse;whiteSpace=wrap;html=1;aspect=fixed;fillColor=#000000;fontSize=16;fontStyle=1" vertex="1" parent="1">
          <mxGeometry x="655" y="225" width="10" height="10" as="geometry" />
        </mxCell>
        <mxCell id="oWXDux-tvk5BPXHDdyhV-12" value="C" style="rounded=0;whiteSpace=wrap;html=1;fontSize=16;fontStyle=1" vertex="1" parent="1">
          <mxGeometry x="560" y="210" width="80" height="40" as="geometry" />
        </mxCell>
        <mxCell id="oWXDux-tvk5BPXHDdyhV-13" value="" style="curved=1;endArrow=classic;html=1;rounded=0;entryX=0;entryY=0.5;entryDx=0;entryDy=0;fontSize=16;fontStyle=1" edge="1" parent="1" target="oWXDux-tvk5BPXHDdyhV-16">
          <mxGeometry width="50" height="50" relative="1" as="geometry">
            <mxPoint x="665" y="229" as="sourcePoint" />
            <mxPoint x="750" y="180" as="targetPoint" />
            <Array as="points">
              <mxPoint x="730" y="220" />
            </Array>
          </mxGeometry>
        </mxCell>
        <mxCell id="oWXDux-tvk5BPXHDdyhV-14" value="" style="rounded=0;whiteSpace=wrap;html=1;fontSize=16;fontStyle=1" vertex="1" parent="1">
          <mxGeometry x="840" y="210" width="40" height="40" as="geometry" />
        </mxCell>
        <mxCell id="oWXDux-tvk5BPXHDdyhV-15" value="" style="ellipse;whiteSpace=wrap;html=1;aspect=fixed;fillColor=#000000;fontSize=16;fontStyle=1" vertex="1" parent="1">
          <mxGeometry x="855" y="225" width="10" height="10" as="geometry" />
        </mxCell>
        <mxCell id="oWXDux-tvk5BPXHDdyhV-16" value="D" style="rounded=0;whiteSpace=wrap;html=1;fontSize=16;fontStyle=1" vertex="1" parent="1">
          <mxGeometry x="760" y="210" width="80" height="40" as="geometry" />
        </mxCell>
        <mxCell id="oWXDux-tvk5BPXHDdyhV-17" value="" style="curved=1;endArrow=classic;html=1;rounded=0;exitX=1;exitY=0.5;exitDx=0;exitDy=0;entryX=0.5;entryY=1;entryDx=0;entryDy=0;fontSize=16;fontStyle=1" edge="1" parent="1" source="oWXDux-tvk5BPXHDdyhV-15" target="oWXDux-tvk5BPXHDdyhV-4">
          <mxGeometry width="50" height="50" relative="1" as="geometry">
            <mxPoint x="880" y="234" as="sourcePoint" />
            <mxPoint x="260" y="280" as="targetPoint" />
            <Array as="points">
              <mxPoint x="910" y="230" />
              <mxPoint x="880" y="310" />
              <mxPoint x="260" y="300" />
              <mxPoint x="210" y="280" />
            </Array>
          </mxGeometry>
        </mxCell>
        <mxCell id="oWXDux-tvk5BPXHDdyhV-18" value="it" style="text;html=1;align=center;verticalAlign=middle;whiteSpace=wrap;rounded=0;fontSize=16;fontStyle=1" vertex="1" parent="1">
          <mxGeometry x="340" y="50" width="60" height="30" as="geometry" />
        </mxCell>
        <mxCell id="oWXDux-tvk5BPXHDdyhV-19" value="last" style="text;html=1;align=right;verticalAlign=middle;whiteSpace=wrap;rounded=0;fontSize=16;fontStyle=1" vertex="1" parent="1">
          <mxGeometry x="410" y="50" width="60" height="40" as="geometry" />
        </mxCell>
        <mxCell id="oWXDux-tvk5BPXHDdyhV-20" value="preLast" style="text;html=1;align=right;verticalAlign=middle;whiteSpace=wrap;rounded=0;fontSize=16;fontStyle=1" vertex="1" parent="1">
          <mxGeometry x="410" y="90" width="60" height="40" as="geometry" />
        </mxCell>
        <mxCell id="oWXDux-tvk5BPXHDdyhV-21" value="" style="group" vertex="1" connectable="0" parent="1">
          <mxGeometry x="480" y="50" width="40" height="40" as="geometry" />
        </mxCell>
        <mxCell id="oWXDux-tvk5BPXHDdyhV-22" value="" style="rounded=0;whiteSpace=wrap;html=1;fontSize=16;fontStyle=1" vertex="1" parent="oWXDux-tvk5BPXHDdyhV-21">
          <mxGeometry width="40" height="40" as="geometry" />
        </mxCell>
        <mxCell id="oWXDux-tvk5BPXHDdyhV-23" value="" style="ellipse;whiteSpace=wrap;html=1;aspect=fixed;fillColor=#000000;fontSize=16;fontStyle=1" vertex="1" parent="oWXDux-tvk5BPXHDdyhV-21">
          <mxGeometry x="15" y="15" width="10" height="10" as="geometry" />
        </mxCell>
        <mxCell id="oWXDux-tvk5BPXHDdyhV-24" value="" style="group" vertex="1" connectable="0" parent="1">
          <mxGeometry x="480" y="90" width="40" height="40" as="geometry" />
        </mxCell>
        <mxCell id="oWXDux-tvk5BPXHDdyhV-25" value="" style="rounded=0;whiteSpace=wrap;html=1;fontSize=16;fontStyle=1" vertex="1" parent="oWXDux-tvk5BPXHDdyhV-24">
          <mxGeometry width="40" height="40" as="geometry" />
        </mxCell>
        <mxCell id="oWXDux-tvk5BPXHDdyhV-26" value="" style="ellipse;whiteSpace=wrap;html=1;aspect=fixed;fillColor=#000000;fontSize=16;fontStyle=1" vertex="1" parent="oWXDux-tvk5BPXHDdyhV-24">
          <mxGeometry x="15" y="15" width="10" height="10" as="geometry" />
        </mxCell>
        <mxCell id="oWXDux-tvk5BPXHDdyhV-28" value="" style="endArrow=classic;html=1;rounded=0;entryX=0.5;entryY=0;entryDx=0;entryDy=0;fontSize=16;fontStyle=1;exitX=0.5;exitY=1;exitDx=0;exitDy=0;" edge="1" parent="1" source="oWXDux-tvk5BPXHDdyhV-26" target="oWXDux-tvk5BPXHDdyhV-8">
          <mxGeometry width="50" height="50" relative="1" as="geometry">
            <mxPoint x="552" y="85" as="sourcePoint" />
            <mxPoint x="610" y="220" as="targetPoint" />
          </mxGeometry>
        </mxCell>
        <mxCell id="oWXDux-tvk5BPXHDdyhV-29" value="" style="rounded=0;whiteSpace=wrap;html=1;fontSize=16;fontStyle=1" vertex="1" parent="1">
          <mxGeometry x="760" y="90" width="40" height="40" as="geometry" />
        </mxCell>
        <mxCell id="oWXDux-tvk5BPXHDdyhV-30" value="" style="ellipse;whiteSpace=wrap;html=1;aspect=fixed;fillColor=#000000;fontSize=16;fontStyle=1" vertex="1" parent="1">
          <mxGeometry x="775" y="105" width="10" height="10" as="geometry" />
        </mxCell>
        <mxCell id="oWXDux-tvk5BPXHDdyhV-31" value="" style="endArrow=classic;html=1;rounded=0;entryX=0.5;entryY=0;entryDx=0;entryDy=0;fontSize=16;fontStyle=1" edge="1" parent="1" source="oWXDux-tvk5BPXHDdyhV-30">
          <mxGeometry width="50" height="50" relative="1" as="geometry">
            <mxPoint x="810" y="160" as="sourcePoint" />
            <mxPoint x="800" y="210" as="targetPoint" />
          </mxGeometry>
        </mxCell>
        <mxCell id="oWXDux-tvk5BPXHDdyhV-32" value="end" style="text;html=1;align=center;verticalAlign=middle;whiteSpace=wrap;rounded=0;fontSize=16;fontStyle=1" vertex="1" parent="1">
          <mxGeometry x="700" y="95" width="60" height="30" as="geometry" />
        </mxCell>
      </root>
    </mxGraphModel>
  </diagram>
  <diagram id="hGdd4zLxpdgOlYBkZZ69" name="페이지-4">
    <mxGraphModel dx="2060" dy="1088" grid="1" gridSize="10" guides="1" tooltips="1" connect="1" arrows="1" fold="1" page="1" pageScale="1" pageWidth="1169" pageHeight="827" math="0" shadow="0">
      <root>
        <mxCell id="0" />
        <mxCell id="1" parent="0" />
      </root>
    </mxGraphModel>
  </diagram>
</mxfile>
